<svg id="Слой_3" data-name="Слой 3" xmlns="http://www.w3.org/2000/svg" viewBox="0 0 99.5 98.8"><defs><style>.cls-1{fill:none;stroke:#000;stroke-miterlimit:10;stroke-width:2px;}</style></defs><title>booking-list</title><polyline class="cls-1" points="83.5 13 98.5 13 98.5 97.8 1 97.8 1 13 16 13"/><polyline class="cls-1" points="43.8 13 63.3 13 73.4 13"/><line class="cls-1" x1="26.1" y1="13" x2="44.7" y2="13"/><rect x="1.4" y="32.2" width="96.8" height="2"/><path class="cls-1" d="M22.4,25H19.8a3.69,3.69,0,0,1-3.7-3.7V4.7A3.61,3.61,0,0,1,19.7,1h2.6A3.69,3.69,0,0,1,26,4.7V21.3A3.61,3.61,0,0,1,22.4,25Z" transform="translate(0 0)"/><path class="cls-1" d="M79.8,25H77.2a3.69,3.69,0,0,1-3.7-3.7V4.7A3.69,3.69,0,0,1,77.2,1h2.6a3.69,3.69,0,0,1,3.7,3.7V21.3A3.76,3.76,0,0,1,79.8,25Z" transform="translate(0 0)"/><rect x="17.41" y="47.29" width="13.6" height="2" transform="translate(-27.05 31.26) rotate(-45)"/><rect x="39.2" y="47.2" width="46.6" height="2"/><rect x="39.2" y="68.2" width="46.6" height="2"/><rect x="17.21" y="46.95" width="2" height="7.2" transform="translate(-30.41 27.68) rotate(-45)"/><rect class="cls-1" x="14.1" y="44.1" width="13.3" height="13.3"/><rect x="17.42" y="66.48" width="13.6" height="2" transform="translate(-40.62 36.89) rotate(-45)"/><rect x="17.22" y="66.11" width="2" height="7.2" transform="translate(-43.96 33.31) rotate(-45)"/><rect class="cls-1" x="14.1" y="63.2" width="13.3" height="13.3"/></svg>