<svg id="Слой_3" data-name="Слой 3" xmlns="http://www.w3.org/2000/svg" viewBox="0 0 99.8 99.8"><defs><style>.cls-1,.cls-2{fill:none;stroke:#000;stroke-linecap:round;stroke-width:2px;}.cls-1{stroke-linejoin:round;}.cls-2{stroke-miterlimit:10;}</style></defs><title>fb</title><path class="cls-1" d="M93.8,98.8H6a5,5,0,0,1-5-5V6A5,5,0,0,1,6,1H93.8a5,5,0,0,1,5,5V93.8A5,5,0,0,1,93.8,98.8Z"/><path class="cls-2" d="M49.4,43.1V29.8s0-11.5,12.4-11.5H75.7A5.34,5.34,0,0,1,81,23.6V34a1.79,1.79,0,0,1-1.8,1.8H67.1"/><polyline class="cls-2" points="66.9 60.5 66.9 98.8 49.4 98.8 49.4 60.5"/><line class="cls-2" x1="66.9" y1="35.8" x2="66.9" y2="43.1"/><path class="cls-2" d="M49.4,60.5H46.2a5.34,5.34,0,0,1-5.3-5.3V48.4a5.34,5.34,0,0,1,5.3-5.3h3.2"/><path class="cls-2" d="M67.2,43.1h8.5A5.34,5.34,0,0,1,81,48.4v6.8a5.34,5.34,0,0,1-5.3,5.3H66.9"/></svg>