<svg id="Слой_3" data-name="Слой 3" xmlns="http://www.w3.org/2000/svg" viewBox="0 0 99.5 98.8"><defs><style>.cls-1{fill:none;stroke:#000;stroke-miterlimit:10;stroke-width:2px;}</style></defs><title>new-booking</title><polyline class="cls-1" points="83.5 13 98.5 13 98.5 97.8 1 97.8 1 13 16 13"/><polyline class="cls-1" points="54.8 13 63.3 13 73.4 13"/><line class="cls-1" x1="26.1" y1="13" x2="44.7" y2="13"/><path class="cls-1" d="M22.4,25H19.8a3.69,3.69,0,0,1-3.7-3.7V4.7A3.61,3.61,0,0,1,19.7,1h2.6A3.69,3.69,0,0,1,26,4.7V21.3A3.61,3.61,0,0,1,22.4,25Z" transform="translate(0 0)"/><path class="cls-1" d="M79.8,25H77.2a3.69,3.69,0,0,1-3.7-3.7V4.7A3.69,3.69,0,0,1,77.2,1h2.6a3.69,3.69,0,0,1,3.7,3.7V21.3A3.76,3.76,0,0,1,79.8,25Z" transform="translate(0 0)"/><path class="cls-1" d="M51.1,25H48.5a3.69,3.69,0,0,1-3.7-3.7V4.7A3.69,3.69,0,0,1,48.5,1h2.6a3.69,3.69,0,0,1,3.7,3.7V21.3A3.76,3.76,0,0,1,51.1,25Z" transform="translate(0 0)"/><rect x="22.81" y="51.33" width="12.4" height="2" transform="translate(-28.51 35.84) rotate(-45)"/><rect x="41.9" y="51" width="9.5" height="2"/><rect x="54.8" y="51" width="22.5" height="2"/><rect x="41.9" y="69.3" width="35.5" height="2"/><rect x="22.15" y="49.63" width="2" height="8.2" transform="translate(-31.21 32.11) rotate(-45)"/></svg>