<svg id="Слой_3" data-name="Слой 3" xmlns="http://www.w3.org/2000/svg" viewBox="0 0 58.9 58.91"><defs><style>.cls-1{fill:none;stroke:#0b0b0b;stroke-linecap:round;stroke-linejoin:round;stroke-width:2px;}</style></defs><title>settings-icon</title><path class="cls-1" d="M45.8,21.2A145.83,145.83,0,0,1,25.5,41.1C16,48.8,1,57.9,1,57.9s9.1-15.1,17-24.8A143,143,0,0,1,37.7,13C41,10.3,55.3-1,57.6,1.3S48.3,18.3,45.8,21.2Z" transform="translate(0 0.01)"/><path class="cls-1" d="M46.7,6S44.5-2.4,35.8,4.9,25,20.3,25,20.3l-.8,2.4-5.3-.3" transform="translate(0 0.01)"/><line class="cls-1" x1="48.6" y1="4.91" x2="53.9" y2="10.31"/><line class="cls-1" x1="14.6" y1="49.11" x2="9.8" y2="44.21"/><line class="cls-1" x1="5.9" y1="50.21" x2="8.7" y2="53.01"/></svg>